<svg width="40" height="40" fill="none" xmlns="http://www.w3.org/2000/svg"><path d="M8.51 31.49c-1.439-1.438-.485-4.457-1.217-6.226C6.534 23.43 3.75 21.954 3.75 20c0-1.954 2.784-3.43 3.543-5.264.732-1.77-.222-4.788 1.217-6.226 1.438-1.439 4.457-.485 6.226-1.217C16.57 6.534 18.046 3.75 20 3.75c1.954 0 3.43 2.784 5.264 3.543 1.77.732 4.788-.222 6.227 1.217 1.438 1.438.484 4.457 1.216 6.226.759 1.834 3.543 3.31 3.543 5.264 0 1.954-2.784 3.43-3.543 5.264-.732 1.77.222 4.788-1.216 6.227-1.439 1.438-4.458.484-6.227 1.216-1.834.759-3.31 3.543-5.264 3.543-1.954 0-3.43-2.784-5.264-3.543-1.77-.732-4.788.222-6.226-1.216Z" stroke="#FFC000" stroke-width="3" stroke-linecap="round" stroke-linejoin="round"/><path d="M26.875 16.25 17.708 25l-4.583-4.375" stroke="#FFC000" stroke-width="3" stroke-linecap="round" stroke-linejoin="round"/></svg>