<svg width="40" height="40" fill="none" xmlns="http://www.w3.org/2000/svg"><path d="m37.612 19.029-3.862 1.93-5-9.574 3.901-1.951a1.25 1.25 0 0 1 1.667.54l3.843 7.358a1.25 1.25 0 0 1-.549 1.697v0ZM6.25 20.793l-3.862-1.931a1.25 1.25 0 0 1-.55-1.697l3.843-7.36a1.25 1.25 0 0 1 1.667-.539l3.902 1.951-5 9.575ZM33.75 20.96l-2.5 2.925-5.75 5.75a1.25 1.25 0 0 1-1.187.328l-9.055-2.264a1.25 1.25 0 0 1-.467-.228L6.25 20.793" stroke="#FFC000" stroke-width="3" stroke-linecap="round" stroke-linejoin="round"/><path d="m31.25 23.885-6.875-5-2 1.5a5 5 0 0 1-6 0l-.847-.636a1.252 1.252 0 0 1-.134-1.883l6.115-6.115a1.25 1.25 0 0 1 .884-.366h6.357" stroke="#FFC000" stroke-width="3" stroke-linecap="round" stroke-linejoin="round"/><path d="m11.34 11.217 8.019-2.338a1.25 1.25 0 0 1 .865.062l5.401 2.444M17.5 33.26l-4.71-1.178a1.25 1.25 0 0 1-.516-.269L8.75 28.75" stroke="#FFC000" stroke-width="3" stroke-linecap="round" stroke-linejoin="round"/></svg>