<svg width="40" height="40" fill="none" xmlns="http://www.w3.org/2000/svg"><path d="M23.75 17.5H30M23.75 22.5H30" stroke="#FFC000" stroke-width="3" stroke-linecap="round" stroke-linejoin="round"/><path d="M14.39 22.5a3.75 3.75 0 1 0 0-7.5 3.75 3.75 0 0 0 0 7.5Z" stroke="#FFC000" stroke-width="2" stroke-linecap="round" stroke-linejoin="round"/><path d="M9.548 26.25a5.002 5.002 0 0 1 9.685 0" stroke="#FFC000" stroke-width="2" stroke-linecap="round" stroke-linejoin="round"/><path d="M33.75 7.5H6.25C5.56 7.5 5 8.06 5 8.75v22.5c0 .69.56 1.25 1.25 1.25h27.5c.69 0 1.25-.56 1.25-1.25V8.75c0-.69-.56-1.25-1.25-1.25Z" stroke="#FFC000" stroke-width="3" stroke-linecap="round" stroke-linejoin="round"/></svg>